<?xml version="1.0" standalone="no"?>
<!DOCTYPE svg PUBLIC "-//W3C//DTD SVG 20010904//EN"
 "http://www.w3.org/TR/2001/REC-SVG-20010904/DTD/svg10.dtd">
<svg version="1.0" xmlns="http://www.w3.org/2000/svg"
 width="700.000000pt" height="700.000000pt" viewBox="0 0 700.000000 700.000000"
 preserveAspectRatio="xMidYMid meet">
<metadata>
Created by potrace 1.11, written by Peter Selinger 2001-2013
</metadata>
<g transform="translate(0.000000,700.000000) scale(0.100000,-0.100000)"
fill="#000000" stroke="none">
<path d="M2049 6157 c-125 -43 -175 -95 -294 -307 -13 -25 -38 -67 -55 -95
-16 -27 -50 -86 -75 -130 -25 -44 -50 -87 -55 -95 -9 -14 -74 -126 -252 -435
-79 -137 -438 -756 -626 -1081 -61 -106 -123 -211 -137 -235 -14 -24 -40 -73
-58 -109 -30 -60 -32 -73 -32 -165 0 -118 5 -133 100 -295 38 -63 81 -140 98
-170 17 -30 38 -66 47 -80 9 -14 31 -50 47 -80 17 -30 93 -163 170 -295 137
-235 491 -846 531 -915 67 -118 373 -642 394 -675 35 -56 92 -102 168 -139
l65 -31 1415 0 1415 0 55 22 c30 13 76 40 102 60 53 44 84 89 210 308 94 163
96 167 353 610 131 226 247 426 258 445 22 39 106 185 122 212 16 27 76 130
100 173 13 22 109 188 213 369 209 359 219 384 209 511 -6 81 -17 109 -88 230
-29 50 -59 101 -66 115 -8 14 -25 42 -36 62 -12 20 -45 76 -73 125 -41 72
-181 314 -257 444 -28 49 -447 771 -619 1069 -88 151 -175 300 -194 332 -19
31 -34 61 -34 67 0 26 -121 133 -186 164 l-69 32 -1400 2 -1400 3 -66 -23z
m2822 -300 c9 -4 25 -25 36 -45 22 -40 147 -257 163 -282 5 -8 38 -64 73 -125
35 -60 187 -324 339 -586 152 -262 285 -492 296 -510 30 -53 81 -142 91 -159
141 -233 361 -627 363 -648 1 -20 -36 -92 -131 -257 -139 -239 -151 -261 -208
-360 -19 -33 -43 -76 -55 -95 -38 -65 -201 -345 -221 -380 -11 -19 -143 -249
-295 -510 -151 -261 -307 -531 -346 -599 -101 -176 -95 -171 -208 -171 -173 0
-739 -1 -1680 0 l-937 0 -26 23 c-15 12 -41 48 -58 79 -18 32 -108 189 -202
350 -93 161 -175 302 -181 313 -6 11 -29 50 -52 88 -23 37 -42 69 -42 72 0 2
-14 28 -31 57 -18 29 -40 67 -49 83 -10 17 -130 224 -267 460 -137 237 -267
461 -289 498 -21 38 -47 83 -58 100 -10 18 -43 74 -74 126 -33 58 -55 106 -54
123 1 30 5 39 182 343 64 110 128 220 142 245 14 25 113 196 220 380 166 286
420 724 478 825 10 17 84 145 164 285 81 140 157 263 169 272 19 15 56 18 317
20 518 5 2414 -7 2431 -15z"/>
<path d="M2615 5373 c-110 -15 -176 -44 -238 -102 -34 -32 -137 -205 -456
-763 -10 -18 -42 -73 -71 -123 -29 -49 -62 -106 -72 -125 -11 -19 -90 -156
-176 -305 -180 -311 -202 -361 -203 -442 0 -116 -1 -115 239 -529 104 -181
202 -351 217 -379 16 -27 39 -67 52 -87 12 -21 23 -42 23 -48 0 -5 5 -10 10
-10 6 0 10 -4 10 -9 0 -5 22 -47 49 -93 26 -45 109 -189 184 -318 74 -129 144
-251 156 -270 11 -19 32 -57 46 -83 15 -27 29 -47 32 -44 3 3 6 395 6 871 2
811 3 866 20 883 16 17 18 16 41 -7 18 -18 629 -1077 849 -1470 87 -156 112
-188 175 -229 98 -62 101 -63 506 -65 247 -1 389 3 426 11 134 27 198 85 305
278 7 11 44 76 85 145 40 69 83 143 95 165 17 33 144 253 231 402 11 18 53 92
95 165 66 115 121 210 251 433 132 226 133 323 8 535 -33 56 -60 104 -60 106
0 3 -16 30 -35 60 -19 30 -35 56 -35 59 0 3 -22 42 -49 87 -57 97 -452 782
-489 848 -14 25 -44 77 -67 115 -23 39 -74 127 -115 198 -40 70 -76 127 -79
127 -3 0 -6 -379 -5 -843 0 -463 -2 -853 -6 -867 -8 -33 -33 -37 -58 -9 -16
16 -692 1174 -756 1294 -6 11 -13 22 -16 25 -3 3 -11 16 -18 30 -7 14 -18 34
-25 45 -7 11 -33 57 -60 102 -58 100 -97 146 -151 178 -96 56 -103 57 -491 59
-198 1 -369 0 -380 -1z"/>
</g>
</svg>
