<?xml version="1.0" encoding="utf-8"?>
<!-- Generator: Adobe Illustrator 24.1.2, SVG Export Plug-In . SVG Version: 6.00 Build 0)  -->
<svg version="1.1" id="Layer_1" xmlns="http://www.w3.org/2000/svg" xmlns:xlink="http://www.w3.org/1999/xlink" x="0px" y="0px"
	 viewBox="0 0 113.4 113.4" style="enable-background:new 0 0 113.4 113.4;" xml:space="preserve">
<style type="text/css">
	.st0{fill:none;stroke:#477EC0;stroke-width:4;stroke-linecap:square;stroke-miterlimit:10;}
	.st1{fill:none;stroke:#DC2127;stroke-width:4;stroke-linecap:square;stroke-miterlimit:10;}
	.st2{fill:none;stroke:#FEBF10;stroke-width:4;stroke-linecap:square;stroke-miterlimit:10;}
</style>
<g id="Layer_2_1_">
	<g id="Layer_1-2">
		<line class="st0" x1="4.4" y1="93.6" x2="4.4" y2="19.8"/>
		<line class="st1" x1="21.3" y1="93.6" x2="21.3" y2="77.1"/>
		<line class="st1" x1="21.3" y1="58.7" x2="21.3" y2="65.2"/>
		<line class="st1" x1="21.3" y1="35.5" x2="21.3" y2="43"/>
		<line class="st0" x1="38.2" y1="19.8" x2="38.2" y2="93.6"/>
		<line class="st2" x1="55.2" y1="19.8" x2="55.2" y2="93.6"/>
		<line class="st0" x1="89" y1="19.8" x2="89" y2="93.6"/>
		<rect x="15.7" y="19.8" class="st0" width="11.3" height="15.7"/>
		<rect x="15.7" y="43" class="st0" width="11.3" height="15.7"/>
		<rect x="66.5" y="19.8" class="st0" width="11.3" height="15.7"/>
		<rect x="66.5" y="43" class="st0" width="11.3" height="15.7"/>
		<line class="st0" x1="72.1" y1="35.5" x2="72.1" y2="43"/>
		<line class="st0" x1="72.1" y1="58.7" x2="72.1" y2="82.3"/>
		<circle class="st0" cx="21.3" cy="71.5" r="5.6"/>
		<circle class="st0" cx="72.1" cy="88" r="5.6"/>
	</g>
</g>
</svg>
