<?xml version="1.0" encoding="utf-8"?>
<!-- Generator: Adobe Illustrator 24.1.2, SVG Export Plug-In . SVG Version: 6.00 Build 0)  -->
<svg version="1.1" id="Layer_1" xmlns="http://www.w3.org/2000/svg" xmlns:xlink="http://www.w3.org/1999/xlink" x="0px" y="0px"
	 viewBox="0 0 113.4 113.4" style="enable-background:new 0 0 113.4 113.4;" xml:space="preserve">
<style type="text/css">
	.st0{fill:none;stroke:#DC2127;stroke-width:4;stroke-miterlimit:10;}
	.st1{fill:none;stroke:#477DBF;stroke-width:4;stroke-miterlimit:10;}
</style>
<path class="st0" d="M63.2,50.2L51.4,38.4L21.3,68.5c-1.9,2.1-3.5,4.4-4.3,7.2v0.1c-0.8,2.8-2.3,5.1-4.3,7.2l-2.2,2.2
	c-1.6,1.6-1.6,4.2,0,5.8l0,0c1.6,1.6,4.2,1.6,5.8,0l2.2-2.2c2.1-2.1,4.6-3.6,7.3-4.4c2.8-0.8,5.3-2.3,7.3-4.4L63.2,50.2z"/>
<path class="st1" d="M69.4,40.3l9.4-9.4c2.2-2.2,2.2-5.8,0-8.1l0,0c-2.2-2.2-5.8-2.2-8.1,0l-9.4,9.4l-6.7-6.7l-8.1,8.1L68,55
	l8.1-8.1L69.4,40.3z"/>
</svg>
