<?xml version="1.0" encoding="utf-8"?>
<!-- Generator: Adobe Illustrator 24.1.2, SVG Export Plug-In . SVG Version: 6.00 Build 0)  -->
<svg version="1.1" id="Layer_1" xmlns="http://www.w3.org/2000/svg" xmlns:xlink="http://www.w3.org/1999/xlink" x="0px" y="0px"
	 viewBox="0 0 113.4 113.4" style="enable-background:new 0 0 113.4 113.4;" xml:space="preserve">
<style type="text/css">
	.st0{fill:none;stroke:#477EC0;stroke-width:4;stroke-miterlimit:10;}
	.st1{fill:none;stroke:#219145;stroke-width:4;stroke-miterlimit:10;}
	.st2{fill:#219145;}
</style>
<g id="Layer_2_1_">
	<g id="Layer_1-2">
		<line class="st0" x1="46.7" y1="92" x2="46.7" y2="99"/>
		<line class="st0" x1="46.7" y1="14.4" x2="46.7" y2="21.4"/>
		<rect x="11.4" y="21.4" class="st0" width="70.6" height="70.6"/>
		<line class="st0" x1="82" y1="56.7" x2="89" y2="56.7"/>
		<line class="st0" x1="4.4" y1="56.7" x2="11.4" y2="56.7"/>
		<line class="st0" x1="46.7" y1="92" x2="46.7" y2="99"/>
		<line class="st0" x1="46.7" y1="14.4" x2="46.7" y2="21.4"/>
		<rect x="11.4" y="21.4" class="st0" width="70.6" height="70.6"/>
		<line class="st0" x1="82" y1="56.7" x2="89" y2="56.7"/>
		<line class="st0" x1="4.4" y1="56.7" x2="11.4" y2="56.7"/>
		<rect x="32.6" y="42.6" class="st1" width="28.2" height="28.2"/>
		<rect x="32.6" y="42.6" class="st1" width="28.2" height="28.2"/>
		<line class="st1" x1="46.7" y1="35.5" x2="46.7" y2="42.6"/>
		<line class="st1" x1="46.7" y1="70.8" x2="46.7" y2="77.9"/>
		<line class="st1" x1="67.9" y1="56.7" x2="60.8" y2="56.7"/>
		<line class="st1" x1="32.6" y1="56.7" x2="25.5" y2="56.7"/>
		<rect x="44.7" y="54.7" class="st2" width="4" height="4"/>
	</g>
</g>
</svg>
