<?xml version="1.0" encoding="utf-8"?>
<!-- Generator: Adobe Illustrator 24.1.2, SVG Export Plug-In . SVG Version: 6.00 Build 0)  -->
<svg version="1.1" id="Layer_1" xmlns="http://www.w3.org/2000/svg" xmlns:xlink="http://www.w3.org/1999/xlink" x="0px" y="0px"
	 viewBox="0 0 628.2 191.4" style="enable-background:new 0 0 628.2 191.4;" xml:space="preserve">
<style type="text/css">
	.st0{fill:none;stroke:#FDBE10;stroke-width:3;stroke-linecap:round;stroke-miterlimit:10;}
	.st1{fill:#FDBE10;}
</style>
<g>
	<path class="st0" d="M152.5,129.8c15.7-30.2-25.7-53.5-22.7-73c4.3-28-7-43.9-26.5-43.9h0.1c-19.5,0-27.4,15.9-23.1,43.9
		c3,19.5-41.7,51.7-28.6,74.6"/>
	<path class="st0" d="M97.4,49.6c6.7,0,6.4,2.8,10.3,4.1c3.9,1.3,9.9,1.9,10,6.3c0.1,4.4-3.1,5.3-5,6.2s-8.6,5.9-13.9,5.9
		c-5.3,0-15.7-7.8-15.7-11.3s5-5.3,6.7-6.7S94.2,49.6,97.4,49.6z"/>
	<path class="st0" d="M87.1,55.9c-4.5-8.3-4-14.9-0.3-17.1c5.1-3,8.9,5.4,9.1,10.7"/>
	<path class="st0" d="M101.1,50c0-6.9,2.5-13.8,8.3-13.8c5.8,0,10.2,8.7,5.1,19.8"/>
	<circle class="st1" cx="108.2" cy="50.4" r="3.3"/>
	<circle class="st1" cx="90.3" cy="49.6" r="3.3"/>
	<path class="st0" d="M88.7,61.2c3.4,2.8,6.3,4.6,10.5,4.6c4.3,0,8.2-3,11.1-4.6"/>
	<path class="st0" d="M85.4,64.7c0,21-16.5,36.9-16.5,60.6"/>
	<path class="st0" d="M71.1,92.4c-6.3,16.6-13.2,28.1,7.4,40.9c15.1,9.3,10.7,18.9,0.2,18.9"/>
	<path class="st0" d="M85.1,170.5c2.6-8.1-3.6-14.7-11-24.1c-7.4-9.5-8-19-16.2-19c-4.1,0-5.5,3.2-9.5,8.4c-2.7,3.5-6.2,0-10.4,4.8
		c-2.8,3.1-0.3,8.8-1.1,14c-0.8,5.2-3.6,13.4,7.6,13.7s13.4,2.4,20.3,5.7S83.1,176.8,85.1,170.5z"/>
	<path class="st0" d="M82.2,157c11,8.9,33.7,5.8,43.8-2.6"/>
	<path class="st0" d="M116.8,63.6c7.7,27.5,18.2,49,14.7,63.7"/>
	<path class="st0" d="M136.5,119.3c-4.3,2.2-9.2,11.6,1,16.7c7.5,3.8,12.8-2.1,15-6.2C155,125.3,142.3,116.3,136.5,119.3z"/>
	<path class="st0" d="M85.1,170.5c6.2-4.3,32.6-4.4,37.5,1.3"/>
	<path class="st0" d="M130.3,85.1c5.4,7.2,9,24.7,6.1,34.1"/>
	<path class="st0" d="M165.3,145.3c-2.4-4.7-1.9-10.9-5.5-13c-2.7-1.5-5.4-1.5-7.9-1.4c-2.5,3.9-7.5,8.5-14.4,5.1
		c-4.7-2.4-6.2-5.7-5.9-8.7c-5.8,3.6-3.5,14.1-5.1,24.9c-1.8,11.9-6.9,16.8-1.8,23.6c4,5.3,15,2.1,20.5-3.2c5.5-5.3,6.9-8,17.4-11.8
		C173,156.8,167.7,150,165.3,145.3z"/>
</g>
<g>
	<g>
		<path class="st1" d="M344.2,23.6c-0.1,6.6-2.6,13-7.5,18.8c-3.9,4.6-10.3,10.1-18.2,10.5c0-6.5,2.9-13.5,8-19.3
			c2.5-2.9,5.8-5.3,9.7-7.3C339,25.1,341.7,24.1,344.2,23.6 M344.4,59L344.4,59c0.6,0,1.2,0,1.8,0.1c10.7,0.9,18.7,4.6,24.4,11.3
			c-10.4,7.3-15.6,17.3-15.5,29.6c0.1,10.4,3.9,19.2,11.4,26.1c2.7,2.5,5.6,4.6,8.8,6.2c-0.5,1.4-1.1,2.9-1.7,4.2
			c-2.2,5-4.8,9.8-7.8,14c-5.1,7.2-8.2,10.6-10,12.1l0,0l0,0c-3.6,3.3-7.4,5-11.4,5.1c-3,0-6.8-0.9-11.2-2.7
			c-5.1-2.1-10-3.2-14.5-3.2c-4.7,0-9.7,1.1-14.9,3.2c-4.5,1.8-8.2,2.8-10.9,2.9c-0.2,0-0.3,0-0.5,0c-3.6,0-7.3-1.8-11.1-5.3l0,0
			l0,0c-2.7-2.4-6.2-6.6-10.5-12.6c-4.5-6.3-8.2-13.8-11.2-22.2c-3.1-9.1-4.7-17.9-4.7-26.4c0-9.5,2.1-17.8,6.1-24.6
			c3.2-5.4,7.4-9.7,12.7-12.8c5.2-3.1,10.9-4.7,17.1-4.8c3.2,0,7.7,1.1,13.3,3.2c8.4,3.1,11,3.5,12.4,3.5c1.2,0,3.3-0.3,13.7-4.1
			C335.7,60,340.4,59,344.4,59 M347.1,20.3c-3.8,0.2-7.9,1.4-12.2,3.5c-4.3,2.1-7.9,4.8-10.7,8c-5.6,6.3-8.8,14.1-8.8,21.3
			c0,1,0.1,2,0.2,2.9c0.6,0,1.2,0.1,1.8,0.1c8,0,15.4-4.4,21.6-11.6c5.5-6.5,8.2-13.6,8.2-21.1C347.2,22.3,347.2,21.3,347.1,20.3
			L347.1,20.3z M344.4,56c-4.3,0-9.3,1-15.1,3.1c-7.2,2.6-11.4,4-12.6,4c-1.7,0-5.5-1.1-11.4-3.3c-5.9-2.2-10.7-3.3-14.4-3.3
			c-6.7,0.1-12.8,1.8-18.6,5.3c-5.7,3.4-10.3,8-13.7,13.9c-4.4,7.3-6.6,16-6.6,26.1c0,8.8,1.6,17.9,4.8,27.4
			c3,8.7,6.9,16.4,11.5,22.9c4.4,6.2,8,10.5,10.9,13.1c4.4,4.1,8.7,6.1,13.1,6.1c0.2,0,0.4,0,0.6,0c3-0.1,7-1.1,11.9-3.1
			c4.9-2,9.5-2.9,13.7-2.9c4.1,0,8.5,1,13.4,2.9c4.8,2,9,3,12.4,3c4.8-0.1,9.3-2.1,13.4-5.9c2.7-2.3,6.2-6.5,10.4-12.6
			c3.1-4.5,5.8-9.3,8.1-14.6c0.9-2.2,1.8-4.6,2.7-7c-3.9-1.6-7.3-3.9-10.4-6.8c-6.9-6.4-10.4-14.4-10.5-24
			c-0.1-12.4,5.5-22,16.8-28.9c-6.3-9-15.9-14-28.6-15C345.7,56,345.1,56,344.4,56L344.4,56z"/>
	</g>
</g>
<g>
	<g>
		<path class="st1" d="M589.2,37v55.4l-64.4,0.5V46.4L589.2,37 M512.3,48.2l0,44.8l-47.1,0.3l0-38.7L512.3,48.2 M465.3,104.5
			l47.1,0.3l0,44.9l-47.1-6.5V104.5 M524.7,105.2l64.5,0.1l0,55.1l-64.4-9.1L524.7,105.2 M592.2,33.5l-70.4,10.3v52.1l70.4-0.6V33.5
			L592.2,33.5z M515.3,44.7L462.2,52l0.1,44.3l53.1-0.3L515.3,44.7L515.3,44.7z M462.3,101.5v44.3l53.1,7.3l0-51.3L462.3,101.5
			L462.3,101.5z M521.7,102.2l0.1,51.7l70.4,9.9l0-61.5L521.7,102.2L521.7,102.2z"/>
	</g>
</g>
</svg>
