<?xml version="1.0" encoding="utf-8"?>
<!-- Generator: Adobe Illustrator 24.1.2, SVG Export Plug-In . SVG Version: 6.00 Build 0)  -->
<svg version="1.1" id="Layer_1" xmlns="http://www.w3.org/2000/svg" xmlns:xlink="http://www.w3.org/1999/xlink" x="0px" y="0px"
	 viewBox="0 0 628.2 191.4" style="enable-background:new 0 0 628.2 191.4;" xml:space="preserve">
<style type="text/css">
	.st0{fill:none;stroke:#FDBE10;stroke-width:3;stroke-linecap:round;stroke-miterlimit:10;}
	.st1{fill:#FDBE10;}
	.st2{fill:none;stroke:#FDBE10;stroke-width:4;stroke-linecap:round;stroke-miterlimit:10;}
</style>
<g>
	<path class="st0" d="M152.5,130.8c15.7-30.2-25.7-53.5-22.7-73c4.3-28-7-43.9-26.5-43.9h0.1c-19.5,0-27.4,15.9-23.1,43.9
		c3,19.5-41.7,51.7-28.6,74.6"/>
	<path class="st0" d="M97.4,50.6c6.7,0,6.4,2.8,10.3,4.1s9.9,1.9,10,6.3s-3.1,5.3-5,6.2s-8.6,5.9-13.9,5.9s-15.7-7.8-15.7-11.3
		c0-3.5,5-5.3,6.7-6.7S94.2,50.6,97.4,50.6z"/>
	<path class="st0" d="M87.1,56.9c-4.5-8.3-4-14.9-0.3-17.1c5.1-3,8.9,5.4,9.1,10.7"/>
	<path class="st0" d="M101.1,51c0-6.9,2.5-13.8,8.3-13.8s10.2,8.7,5.1,19.8"/>
	<circle class="st1" cx="108.2" cy="51.4" r="2.9"/>
	<circle class="st1" cx="90.3" cy="50.6" r="2.9"/>
	<path class="st0" d="M88.7,62.2c3.4,2.8,6.3,4.6,10.5,4.6c4.3,0,8.2-3,11.1-4.6"/>
	<path class="st0" d="M85.4,65.7c0,21-16.5,36.9-16.5,60.6"/>
	<path class="st0" d="M71.1,93.4c-6.3,16.6-13.2,28.1,7.4,40.9c15.1,9.3,10.7,18.9,0.2,18.9"/>
	<path class="st0" d="M85.1,171.5c2.6-8.1-3.6-14.7-11-24.1c-7.4-9.5-8-19-16.2-19c-4.1,0-5.5,3.2-9.5,8.4c-2.7,3.5-6.2,0-10.4,4.8
		c-2.8,3.1-0.3,8.8-1.1,14s-3.6,13.4,7.6,13.7s13.4,2.4,20.3,5.7S83.1,177.8,85.1,171.5z"/>
	<path class="st0" d="M82.2,158c11,8.9,33.7,5.8,43.8-2.6"/>
	<path class="st0" d="M116.8,64.6c7.7,27.5,18.2,49,14.7,63.7"/>
	<path class="st0" d="M136.5,120.3c-4.3,2.2-9.2,11.6,1,16.7c7.5,3.8,12.8-2.1,15-6.2C155,126.3,142.3,117.3,136.5,120.3z"/>
	<path class="st0" d="M85.1,171.5c6.2-4.3,32.6-4.4,37.5,1.3"/>
	<path class="st0" d="M130.3,86.1c5.4,7.2,9,24.7,6.1,34.1"/>
	<path class="st0" d="M165.3,146.3c-2.4-4.7-1.9-10.9-5.5-13c-2.7-1.5-5.4-1.5-7.9-1.4c-2.5,3.9-7.5,8.5-14.4,5.1
		c-4.7-2.4-6.2-5.7-5.9-8.7c-5.8,3.6-3.5,14.1-5.1,24.9c-1.8,11.9-6.9,16.8-1.8,23.6c4,5.3,15,2.1,20.5-3.2s6.9-8,17.4-11.8
		C173,157.8,167.7,151,165.3,146.3z"/>
</g>
<g>
	<path class="st2" d="M363.9,138.8c-2.3,5.3-5,10.1-8.1,14.6c-4.3,6.1-7.8,10.3-10.4,12.6c-4.2,3.8-8.6,5.8-13.4,5.9
		c-3.4,0-7.6-1-12.4-3c-4.8-2-9.3-2.9-13.4-2.9c-4.3,0-8.8,1-13.7,2.9c-4.9,2-8.8,3-11.9,3.1c-4.6,0.2-9.2-1.8-13.7-6.1
		c-2.9-2.5-6.6-6.9-10.9-13.1c-4.7-6.6-8.5-14.2-11.5-22.9c-3.2-9.4-4.8-18.5-4.8-27.4c0-10.1,2.2-18.8,6.6-26.1
		c3.4-5.9,8-10.5,13.7-13.9c5.7-3.4,11.9-5.1,18.6-5.3c3.7,0,8.4,1.1,14.4,3.3s9.7,3.3,11.4,3.3c1.3,0,5.5-1.3,12.6-4
		c6.8-2.4,12.5-3.4,17.2-3c12.7,1,22.2,6,28.6,15c-11.3,6.9-17,16.5-16.8,28.9c0.1,9.6,3.6,17.6,10.5,24c3.1,3,6.6,5.2,10.4,6.8
		C365.7,134.3,364.8,136.6,363.9,138.8L363.9,138.8z"/>
	<path class="st2" d="M334.8,22.3c0,7.5-2.8,14.6-8.2,21.1c-6.6,7.7-14.6,12.2-23.3,11.5c-0.1-0.9-0.2-1.9-0.2-2.9
		c0-7.2,3.1-15,8.8-21.3c2.8-3.2,6.3-5.9,10.7-8c4.3-2.1,8.4-3.3,12.2-3.5C334.7,20.3,334.8,21.3,334.8,22.3L334.8,22.3z"/>
</g>
<g>
	<polygon class="st2" points="440.3,52 493.4,44.7 493.4,96 440.3,96.3 	"/>
	<polygon class="st2" points="493.4,103.9 493.4,155.2 440.3,147.9 440.3,103.5 	"/>
	<polygon class="st2" points="501.8,43.8 572.2,33.5 572.2,95.3 501.8,95.9 	"/>
	<polygon class="st2" points="572.3,104.4 572.2,165.9 501.8,156 501.7,104.3 	"/>
</g>
</svg>
