<?xml version="1.0" encoding="utf-8"?>
<!-- Generator: Adobe Illustrator 24.1.2, SVG Export Plug-In . SVG Version: 6.00 Build 0)  -->
<svg version="1.1" id="Layer_1" xmlns="http://www.w3.org/2000/svg" xmlns:xlink="http://www.w3.org/1999/xlink" x="0px" y="0px"
	 viewBox="0 0 184 65" style="enable-background:new 0 0 184 65;" xml:space="preserve">
<style type="text/css">
	.st0{fill:#DC1F26;}
</style>
<path class="st0" d="M41.5,14.3c2.3-1.4,4.7-3.2,6.8-5.4c1.7-1.7-5.7-0.9-7.4,0.6c-1.9,1.6-3.8,3.4-5.6,5.5
	C34.2,16.2,39.2,15.6,41.5,14.3z M175.4,52.3c1.3,0.8,1.2-3.3-1.4-4.9c-9.4-5.9-35.1,4.3-44.8,5.5c-1.8,0.2-2.5-0.2-2.1-1.5
	c0.8-2.4,4.1-6.8,4.7-8.3c0.6-1.4,0.5-6.4-6.8-6.4c-6,0-11.5,2.8-15.4,6.3c-3.7,3.1-10.8,9.4-15.2,9.4c-4.5,0,8.8-13.7,9.5-14.4
	c2-1.9-4.3-1.4-6.9,0.6c-1,0.8-5.2,5.3-7.9,9.6c-7.6,5.2-15.1,6.5-11.5,2.1c1.9-2.3,5.1-5.4,7.4-7.9c3.1-3.4,2.5-5.7-4.3-5.7
	c-9.2,0-10.1,0.8-15.3,6.9c-1,1.1-0.5,3.9,0.5,3c6.2-6.1,6.1-5.6,14.3-5.6c-1.3,1.4-3.7,2.8-7.7,7.9c-3.6,4.5-1.2,8.2,3.8,8.2
	c2.8,0,7-1.3,10.8-4c-0.5,2.4,0.5,4,4.1,4c4.2,0,8.9-2.5,12.9-5.2c-0.5,3,1,5.2,5.5,5.2c3.4,0,7.3-1.3,11.4-4.9
	c0,2.7,1.9,4.9,5.4,4.9C135.2,56.9,165,46,175.4,52.3z M112,53c-5.7,0,5.7-13,13.1-13C129.5,40,117.4,53,112,53z M107.5,32.9
	c2.3-1.4,6.6-4.8,8.8-6.9c1.7-1.7-5.7-0.9-7.4,0.6c-1.9,1.6-5.1,4.5-6.8,6.6C100.9,34.4,105.2,34.3,107.5,32.9z M62.7,46.8
	c-2.2,2.2-7.1,5.8-11.3,5.8c-3.1,0,3.1-5.6,6.2-10.2c3-4.3,0.5-5.6-1.9-5.6c-6.1,0-12,4.3-16,7.2c1.2-1.6,3.1-3.7,5.1-6.4
	c1.1-1.5-5.6-0.9-7.3,1.3c-0.5,0.7-1.1,1.5-1.8,2.4C30,48.3,21.2,53,16.9,53c-2.4,0-3.3-1.6-1.8-4.8c3.6-7.5,16-21.8,22.7-28
	c3.1-2.9-6.1-1.7-8.2,0.4c-9.3,9.4-18.7,19.8-21.3,28c-1.5,4.5-0.1,8.5,5.5,8.5c4.6,0,9.7-2.3,14-5c-1.1,1.5-2,2.8-2.8,3.8
	c-1.2,1.7,5,1,6.3-0.6c4.9-6.3,16.6-13.9,19.9-13.9c3,0-7.3,7.7-7.2,12.4c0.1,6.2,14.4,2.4,19.3-4C64,48.8,63.4,46.1,62.7,46.8z"/>
</svg>
